<svg width="195" height="211" viewBox="0 0 195 211" fill="none" xmlns="http://www.w3.org/2000/svg">
<circle cx="97.5" cy="44.5" r="44.5" fill="#4047E2"/>
<rect width="40" height="40" transform="translate(78 29)" fill="#4047E2"/>
<path d="M114 29H82C79.8 29 78.02 30.8 78.02 33L78 69L86 61H114C116.2 61 118 59.2 118 57V33C118 30.8 116.2 29 114 29ZM86 43H110V47H86V43ZM102 53H86V49H102V53ZM110 41H86V37H110V41Z" fill="#F8F8F8"/>
<path d="M7.06695 134.2C5.88029 134.2 4.86029 134.007 4.00695 133.62C3.15362 133.22 2.48695 132.613 2.00695 131.8C1.52695 130.973 1.26695 129.947 1.22695 128.72C1.21362 128.147 1.20695 127.58 1.20695 127.02C1.20695 126.46 1.21362 125.887 1.22695 125.3C1.26695 124.087 1.53362 123.073 2.02695 122.26C2.52029 121.447 3.19362 120.833 4.04695 120.42C4.91362 120.007 5.92029 119.8 7.06695 119.8C8.21362 119.8 9.22029 120.007 10.087 120.42C10.9536 120.833 11.6336 121.447 12.127 122.26C12.6203 123.073 12.887 124.087 12.927 125.3C12.9536 125.887 12.967 126.46 12.967 127.02C12.967 127.58 12.9536 128.147 12.927 128.72C12.887 129.947 12.627 130.973 12.147 131.8C11.667 132.613 10.9936 133.22 10.127 133.62C9.27362 134.007 8.25362 134.2 7.06695 134.2ZM7.06695 131.9C7.93362 131.9 8.64029 131.647 9.18695 131.14C9.73362 130.62 10.027 129.78 10.067 128.62C10.0936 128.033 10.107 127.493 10.107 127C10.107 126.493 10.0936 125.953 10.067 125.38C10.0403 124.607 9.89362 123.98 9.62695 123.5C9.37362 123.007 9.02695 122.653 8.58695 122.44C8.14695 122.213 7.64029 122.1 7.06695 122.1C6.50695 122.1 6.00695 122.213 5.56695 122.44C5.12695 122.653 4.77362 123.007 4.50695 123.5C4.25362 123.98 4.11362 124.607 4.08695 125.38C4.07362 125.953 4.06695 126.493 4.06695 127C4.06695 127.493 4.07362 128.033 4.08695 128.62C4.12695 129.78 4.42029 130.62 4.96695 131.14C5.51362 131.647 6.21362 131.9 7.06695 131.9ZM20.0532 134.2C18.9465 134.2 18.0265 134.007 17.2932 133.62C16.5732 133.22 16.0332 132.64 15.6732 131.88C15.3132 131.12 15.1065 130.193 15.0532 129.1C15.0532 128.713 15.0532 128.313 15.0532 127.9C15.0532 127.487 15.0532 127.087 15.0532 126.7C15.0799 125.527 15.1932 124.553 15.3932 123.78C15.6065 122.993 15.9199 122.347 16.3332 121.84C16.7465 121.32 17.2799 120.893 17.9332 120.56C18.5865 120.213 19.3599 119.913 20.2532 119.66C21.1465 119.407 22.1799 119.14 23.3532 118.86C23.4865 118.833 23.6065 118.853 23.7132 118.92C23.8332 118.987 23.8999 119.093 23.9132 119.24L24.1732 120.56C24.1999 120.693 24.1799 120.813 24.1132 120.92C24.0465 121.013 23.9532 121.073 23.8332 121.1C22.8199 121.327 21.9465 121.533 21.2132 121.72C20.4799 121.893 19.8732 122.093 19.3932 122.32C18.9132 122.547 18.5332 122.847 18.2532 123.22C17.9865 123.58 17.7999 124.053 17.6932 124.64C17.5865 125.227 17.5532 125.98 17.5932 126.9L17.1332 126.52C17.2132 126.107 17.4199 125.727 17.7532 125.38C18.0865 125.033 18.4932 124.76 18.9732 124.56C19.4665 124.347 19.9865 124.24 20.5332 124.24C21.4932 124.24 22.2999 124.42 22.9532 124.78C23.6065 125.14 24.1065 125.647 24.4532 126.3C24.8132 126.94 25.0132 127.693 25.0532 128.56C25.0799 129.04 25.0799 129.48 25.0532 129.88C25.0132 130.733 24.7999 131.487 24.4132 132.14C24.0265 132.793 23.4732 133.3 22.7532 133.66C22.0332 134.02 21.1332 134.2 20.0532 134.2ZM20.0532 132.36C20.7732 132.36 21.3265 132.14 21.7132 131.7C22.0999 131.26 22.3065 130.62 22.3332 129.78C22.3465 129.633 22.3532 129.46 22.3532 129.26C22.3532 129.047 22.3465 128.847 22.3332 128.66C22.3065 127.82 22.0999 127.18 21.7132 126.74C21.3399 126.3 20.8399 126.08 20.2132 126.08C19.4932 126.08 18.9132 126.3 18.4732 126.74C18.0465 127.18 17.8199 127.82 17.7932 128.66C17.7799 128.847 17.7732 129.047 17.7732 129.26C17.7732 129.46 17.7799 129.633 17.7932 129.78C17.8199 130.62 18.0265 131.26 18.4132 131.7C18.7999 132.14 19.3465 132.36 20.0532 132.36ZM40.0068 136.44C39.8735 136.44 39.7601 136.393 39.6668 136.3C39.5735 136.207 39.5268 136.093 39.5268 135.96V134H27.7668C27.6335 134 27.5201 133.953 27.4268 133.86C27.3335 133.767 27.2868 133.653 27.2868 133.52V124.08C27.2868 123.947 27.3335 123.833 27.4268 123.74C27.5201 123.647 27.6335 123.6 27.7668 123.6H29.3468C29.4935 123.6 29.6068 123.647 29.6868 123.74C29.7801 123.833 29.8268 123.947 29.8268 124.08V131.88H32.8268V124.08C32.8268 123.947 32.8668 123.833 32.9468 123.74C33.0401 123.647 33.1601 123.6 33.3068 123.6H34.7468C34.8935 123.6 35.0068 123.647 35.0868 123.74C35.1801 123.833 35.2268 123.947 35.2268 124.08V131.88H38.2268V124.08C38.2268 123.947 38.2668 123.833 38.3468 123.74C38.4401 123.647 38.5601 123.6 38.7068 123.6H40.2868C40.4201 123.6 40.5335 123.647 40.6268 123.74C40.7201 123.833 40.7668 123.947 40.7668 124.08V131.88H41.6668C41.8001 131.88 41.9135 131.927 42.0068 132.02C42.1001 132.113 42.1468 132.227 42.1468 132.36V135.96C42.1468 136.093 42.1001 136.207 42.0068 136.3C41.9135 136.393 41.8001 136.44 41.6668 136.44H40.0068ZM48.4465 134.2C46.9665 134.2 45.7932 133.773 44.9265 132.92C44.0598 132.067 43.5932 130.853 43.5265 129.28C43.5132 129.147 43.5065 128.98 43.5065 128.78C43.5065 128.567 43.5132 128.4 43.5265 128.28C43.5798 127.28 43.8065 126.413 44.2065 125.68C44.6198 124.947 45.1865 124.387 45.9065 124C46.6265 123.6 47.4732 123.4 48.4465 123.4C49.5265 123.4 50.4332 123.627 51.1665 124.08C51.8998 124.52 52.4532 125.14 52.8265 125.94C53.1998 126.727 53.3865 127.64 53.3865 128.68V129.1C53.3865 129.233 53.3398 129.347 53.2465 129.44C53.1532 129.533 53.0332 129.58 52.8865 129.58H46.2465C46.2465 129.58 46.2465 129.6 46.2465 129.64C46.2465 129.68 46.2465 129.713 46.2465 129.74C46.2598 130.207 46.3465 130.64 46.5065 131.04C46.6798 131.427 46.9265 131.74 47.2465 131.98C47.5798 132.22 47.9732 132.34 48.4265 132.34C48.7998 132.34 49.1132 132.287 49.3665 132.18C49.6198 132.06 49.8265 131.927 49.9865 131.78C50.1465 131.633 50.2598 131.513 50.3265 131.42C50.4465 131.26 50.5398 131.167 50.6065 131.14C50.6865 131.1 50.7998 131.08 50.9465 131.08H52.6665C52.7998 131.08 52.9065 131.12 52.9865 131.2C53.0798 131.28 53.1198 131.38 53.1065 131.5C53.0932 131.713 52.9798 131.973 52.7665 132.28C52.5665 132.587 52.2732 132.887 51.8865 133.18C51.4998 133.473 51.0132 133.72 50.4265 133.92C49.8532 134.107 49.1932 134.2 48.4465 134.2ZM46.2465 127.9H50.6665V127.84C50.6665 127.32 50.5798 126.867 50.4065 126.48C50.2332 126.093 49.9798 125.787 49.6465 125.56C49.3132 125.333 48.9132 125.22 48.4465 125.22C47.9798 125.22 47.5798 125.333 47.2465 125.56C46.9132 125.787 46.6598 126.093 46.4865 126.48C46.3265 126.867 46.2465 127.32 46.2465 127.84V127.9ZM55.9895 134C55.8561 134 55.7428 133.953 55.6495 133.86C55.5561 133.767 55.5095 133.653 55.5095 133.52V124.08C55.5095 123.947 55.5561 123.833 55.6495 123.74C55.7428 123.647 55.8561 123.6 55.9895 123.6H57.6495C57.7961 123.6 57.9095 123.647 57.9895 123.74C58.0828 123.833 58.1295 123.947 58.1295 124.08V127.66H62.6495V124.08C62.6495 123.947 62.6961 123.833 62.7895 123.74C62.8828 123.647 62.9961 123.6 63.1295 123.6H64.7895C64.9228 123.6 65.0361 123.647 65.1295 123.74C65.2228 123.833 65.2695 123.947 65.2695 124.08V133.52C65.2695 133.653 65.2228 133.767 65.1295 133.86C65.0361 133.953 64.9228 134 64.7895 134H63.1295C62.9961 134 62.8828 133.953 62.7895 133.86C62.6961 133.767 62.6495 133.653 62.6495 133.52V129.76H58.1295V133.52C58.1295 133.653 58.0828 133.767 57.9895 133.86C57.9095 133.953 57.7961 134 57.6495 134H55.9895ZM68.4304 134C68.3104 134 68.2037 133.953 68.1104 133.86C68.0171 133.767 67.9704 133.66 67.9704 133.54V124.08C67.9704 123.947 68.0171 123.833 68.1104 123.74C68.2037 123.647 68.3171 123.6 68.4504 123.6H70.1104C70.2571 123.6 70.3704 123.647 70.4504 123.74C70.5437 123.833 70.5904 123.947 70.5904 124.08V131.98L69.8904 131.48L75.3904 123.92C75.4571 123.827 75.5304 123.753 75.6104 123.7C75.6904 123.633 75.7971 123.6 75.9304 123.6H77.4504C77.5704 123.6 77.6771 123.647 77.7704 123.74C77.8637 123.82 77.9104 123.92 77.9104 124.04V133.52C77.9104 133.653 77.8637 133.767 77.7704 133.86C77.6771 133.953 77.5637 134 77.4304 134H75.7704C75.6237 134 75.5037 133.953 75.4104 133.86C75.3304 133.767 75.2904 133.653 75.2904 133.52V125.98L76.0304 126.08L70.4904 133.68C70.4371 133.76 70.3637 133.833 70.2704 133.9C70.1904 133.967 70.0837 134 69.9504 134H68.4304ZM84.9113 134.2C83.4313 134.2 82.258 133.773 81.3913 132.92C80.5247 132.067 80.058 130.853 79.9913 129.28C79.978 129.147 79.9713 128.98 79.9713 128.78C79.9713 128.567 79.978 128.4 79.9913 128.28C80.0447 127.28 80.2713 126.413 80.6713 125.68C81.0847 124.947 81.6513 124.387 82.3713 124C83.0913 123.6 83.938 123.4 84.9113 123.4C85.9913 123.4 86.898 123.627 87.6313 124.08C88.3647 124.52 88.918 125.14 89.2913 125.94C89.6647 126.727 89.8513 127.64 89.8513 128.68V129.1C89.8513 129.233 89.8047 129.347 89.7113 129.44C89.618 129.533 89.498 129.58 89.3513 129.58H82.7113C82.7113 129.58 82.7113 129.6 82.7113 129.64C82.7113 129.68 82.7113 129.713 82.7113 129.74C82.7247 130.207 82.8113 130.64 82.9713 131.04C83.1447 131.427 83.3913 131.74 83.7113 131.98C84.0447 132.22 84.438 132.34 84.8913 132.34C85.2647 132.34 85.578 132.287 85.8313 132.18C86.0847 132.06 86.2913 131.927 86.4513 131.78C86.6113 131.633 86.7247 131.513 86.7913 131.42C86.9113 131.26 87.0047 131.167 87.0713 131.14C87.1513 131.1 87.2647 131.08 87.4113 131.08H89.1313C89.2647 131.08 89.3713 131.12 89.4513 131.2C89.5447 131.28 89.5847 131.38 89.5713 131.5C89.558 131.713 89.4447 131.973 89.2313 132.28C89.0313 132.587 88.738 132.887 88.3513 133.18C87.9647 133.473 87.478 133.72 86.8913 133.92C86.318 134.107 85.658 134.2 84.9113 134.2ZM82.7113 127.9H87.1313V127.84C87.1313 127.32 87.0447 126.867 86.8713 126.48C86.698 126.093 86.4447 125.787 86.1113 125.56C85.778 125.333 85.378 125.22 84.9113 125.22C84.4447 125.22 84.0447 125.333 83.7113 125.56C83.378 125.787 83.1247 126.093 82.9513 126.48C82.7913 126.867 82.7113 127.32 82.7113 127.84V127.9ZM101.045 134.2C100.085 134.2 99.2379 134.02 98.5046 133.66C97.7846 133.3 97.2179 132.78 96.8046 132.1C96.4046 131.407 96.1846 130.573 96.1446 129.6C96.1313 129.4 96.1246 129.14 96.1246 128.82C96.1246 128.487 96.1313 128.213 96.1446 128C96.1846 127.027 96.4046 126.2 96.8046 125.52C97.2179 124.827 97.7846 124.3 98.5046 123.94C99.2379 123.58 100.085 123.4 101.045 123.4C101.898 123.4 102.625 123.52 103.225 123.76C103.825 124 104.318 124.3 104.705 124.66C105.091 125.02 105.378 125.4 105.565 125.8C105.765 126.187 105.871 126.54 105.885 126.86C105.898 127.007 105.851 127.127 105.745 127.22C105.651 127.3 105.538 127.34 105.405 127.34H103.645C103.511 127.34 103.405 127.307 103.325 127.24C103.258 127.173 103.191 127.073 103.125 126.94C102.925 126.407 102.658 126.033 102.325 125.82C102.005 125.593 101.591 125.48 101.085 125.48C100.418 125.48 99.8846 125.693 99.4846 126.12C99.0979 126.533 98.8913 127.193 98.8646 128.1C98.8379 128.607 98.8379 129.073 98.8646 129.5C98.8913 130.42 99.0979 131.087 99.4846 131.5C99.8846 131.913 100.418 132.12 101.085 132.12C101.605 132.12 102.025 132.013 102.345 131.8C102.665 131.573 102.925 131.193 103.125 130.66C103.191 130.527 103.258 130.427 103.325 130.36C103.405 130.293 103.511 130.26 103.645 130.26H105.405C105.538 130.26 105.651 130.307 105.745 130.4C105.851 130.48 105.898 130.593 105.885 130.74C105.871 130.98 105.805 131.253 105.685 131.56C105.578 131.853 105.398 132.16 105.145 132.48C104.905 132.787 104.598 133.073 104.225 133.34C103.851 133.593 103.398 133.8 102.865 133.96C102.345 134.12 101.738 134.2 101.045 134.2ZM113.021 134C112.887 134 112.774 133.953 112.681 133.86C112.587 133.767 112.541 133.653 112.541 133.52V124.08C112.541 123.947 112.587 123.833 112.681 123.74C112.774 123.647 112.887 123.6 113.021 123.6H114.661C114.794 123.6 114.907 123.647 115.001 123.74C115.094 123.833 115.141 123.947 115.141 124.08V127.66H116.581L119.021 123.92C119.074 123.827 119.141 123.753 119.221 123.7C119.314 123.633 119.434 123.6 119.581 123.6H121.361C121.494 123.6 121.601 123.633 121.681 123.7C121.761 123.767 121.801 123.853 121.801 123.96C121.801 124 121.787 124.047 121.761 124.1C121.747 124.14 121.727 124.18 121.701 124.22L118.821 128.6L122.121 133.38C122.187 133.46 122.221 133.547 122.221 133.64C122.221 133.747 122.181 133.833 122.101 133.9C122.021 133.967 121.921 134 121.801 134H119.781C119.647 134 119.534 133.973 119.441 133.92C119.361 133.867 119.287 133.793 119.221 133.7L116.581 129.78H115.141V133.52C115.141 133.653 115.094 133.767 115.001 133.86C114.907 133.953 114.794 134 114.661 134H113.021ZM123.646 134C123.5 134 123.38 133.953 123.286 133.86C123.193 133.767 123.146 133.647 123.146 133.5V132.26C123.146 131.967 123.3 131.807 123.606 131.78C124.006 131.753 124.326 131.567 124.566 131.22C124.806 130.873 124.98 130.34 125.086 129.62C125.193 128.887 125.246 127.94 125.246 126.78V124.08C125.246 123.947 125.293 123.833 125.386 123.74C125.48 123.647 125.6 123.6 125.746 123.6H132.846C132.98 123.6 133.093 123.647 133.186 123.74C133.28 123.833 133.326 123.947 133.326 124.08V133.52C133.326 133.653 133.28 133.767 133.186 133.86C133.093 133.953 132.98 134 132.846 134H131.186C131.04 134 130.92 133.953 130.826 133.86C130.746 133.767 130.706 133.653 130.706 133.52V125.72H127.766V127.06C127.766 128.34 127.693 129.427 127.546 130.32C127.413 131.2 127.18 131.913 126.846 132.46C126.526 132.993 126.1 133.387 125.566 133.64C125.046 133.88 124.406 134 123.646 134ZM139.037 134.2C138.344 134.2 137.717 134.067 137.157 133.8C136.597 133.52 136.151 133.153 135.817 132.7C135.497 132.233 135.337 131.713 135.337 131.14C135.337 130.207 135.711 129.467 136.457 128.92C137.217 128.36 138.217 127.987 139.457 127.8L142.197 127.4V126.98C142.197 126.42 142.057 125.987 141.777 125.68C141.497 125.373 141.017 125.22 140.337 125.22C139.857 125.22 139.464 125.32 139.157 125.52C138.864 125.707 138.644 125.96 138.497 126.28C138.391 126.453 138.237 126.54 138.037 126.54H136.457C136.311 126.54 136.197 126.5 136.117 126.42C136.051 126.34 136.017 126.233 136.017 126.1C136.031 125.887 136.117 125.627 136.277 125.32C136.437 125.013 136.691 124.72 137.037 124.44C137.384 124.147 137.831 123.9 138.377 123.7C138.924 123.5 139.584 123.4 140.357 123.4C141.197 123.4 141.904 123.507 142.477 123.72C143.064 123.92 143.531 124.193 143.877 124.54C144.224 124.887 144.477 125.293 144.637 125.76C144.797 126.227 144.877 126.72 144.877 127.24V133.52C144.877 133.653 144.831 133.767 144.737 133.86C144.644 133.953 144.531 134 144.397 134H142.777C142.631 134 142.511 133.953 142.417 133.86C142.337 133.767 142.297 133.653 142.297 133.52V132.74C142.124 132.993 141.891 133.233 141.597 133.46C141.304 133.673 140.944 133.853 140.517 134C140.104 134.133 139.611 134.2 139.037 134.2ZM139.717 132.3C140.184 132.3 140.604 132.2 140.977 132C141.364 131.8 141.664 131.493 141.877 131.08C142.104 130.653 142.217 130.12 142.217 129.48V129.06L140.217 129.38C139.431 129.5 138.844 129.693 138.457 129.96C138.071 130.227 137.877 130.553 137.877 130.94C137.877 131.233 137.964 131.487 138.137 131.7C138.324 131.9 138.557 132.053 138.837 132.16C139.117 132.253 139.411 132.3 139.717 132.3ZM151.943 134.2C150.983 134.2 150.136 134.02 149.403 133.66C148.683 133.3 148.116 132.78 147.703 132.1C147.303 131.407 147.083 130.573 147.043 129.6C147.03 129.4 147.023 129.14 147.023 128.82C147.023 128.487 147.03 128.213 147.043 128C147.083 127.027 147.303 126.2 147.703 125.52C148.116 124.827 148.683 124.3 149.403 123.94C150.136 123.58 150.983 123.4 151.943 123.4C152.796 123.4 153.523 123.52 154.123 123.76C154.723 124 155.216 124.3 155.603 124.66C155.99 125.02 156.276 125.4 156.463 125.8C156.663 126.187 156.77 126.54 156.783 126.86C156.796 127.007 156.75 127.127 156.643 127.22C156.55 127.3 156.436 127.34 156.303 127.34H154.543C154.41 127.34 154.303 127.307 154.223 127.24C154.156 127.173 154.09 127.073 154.023 126.94C153.823 126.407 153.556 126.033 153.223 125.82C152.903 125.593 152.49 125.48 151.983 125.48C151.316 125.48 150.783 125.693 150.383 126.12C149.996 126.533 149.79 127.193 149.763 128.1C149.736 128.607 149.736 129.073 149.763 129.5C149.79 130.42 149.996 131.087 150.383 131.5C150.783 131.913 151.316 132.12 151.983 132.12C152.503 132.12 152.923 132.013 153.243 131.8C153.563 131.573 153.823 131.193 154.023 130.66C154.09 130.527 154.156 130.427 154.223 130.36C154.303 130.293 154.41 130.26 154.543 130.26H156.303C156.436 130.26 156.55 130.307 156.643 130.4C156.75 130.48 156.796 130.593 156.783 130.74C156.77 130.98 156.703 131.253 156.583 131.56C156.476 131.853 156.296 132.16 156.043 132.48C155.803 132.787 155.496 133.073 155.123 133.34C154.75 133.593 154.296 133.8 153.763 133.96C153.243 134.12 152.636 134.2 151.943 134.2ZM163.369 134.2C162.409 134.2 161.562 134.02 160.829 133.66C160.109 133.3 159.542 132.78 159.129 132.1C158.729 131.407 158.509 130.573 158.469 129.6C158.455 129.4 158.449 129.14 158.449 128.82C158.449 128.487 158.455 128.213 158.469 128C158.509 127.027 158.729 126.2 159.129 125.52C159.542 124.827 160.109 124.3 160.829 123.94C161.562 123.58 162.409 123.4 163.369 123.4C164.222 123.4 164.949 123.52 165.549 123.76C166.149 124 166.642 124.3 167.029 124.66C167.415 125.02 167.702 125.4 167.889 125.8C168.089 126.187 168.195 126.54 168.209 126.86C168.222 127.007 168.175 127.127 168.069 127.22C167.975 127.3 167.862 127.34 167.729 127.34H165.969C165.835 127.34 165.729 127.307 165.649 127.24C165.582 127.173 165.515 127.073 165.449 126.94C165.249 126.407 164.982 126.033 164.649 125.82C164.329 125.593 163.915 125.48 163.409 125.48C162.742 125.48 162.209 125.693 161.809 126.12C161.422 126.533 161.215 127.193 161.189 128.1C161.162 128.607 161.162 129.073 161.189 129.5C161.215 130.42 161.422 131.087 161.809 131.5C162.209 131.913 162.742 132.12 163.409 132.12C163.929 132.12 164.349 132.013 164.669 131.8C164.989 131.573 165.249 131.193 165.449 130.66C165.515 130.527 165.582 130.427 165.649 130.36C165.729 130.293 165.835 130.26 165.969 130.26H167.729C167.862 130.26 167.975 130.307 168.069 130.4C168.175 130.48 168.222 130.593 168.209 130.74C168.195 130.98 168.129 131.253 168.009 131.56C167.902 131.853 167.722 132.16 167.469 132.48C167.229 132.787 166.922 133.073 166.549 133.34C166.175 133.593 165.722 133.8 165.189 133.96C164.669 134.12 164.062 134.2 163.369 134.2ZM174.895 134.2C173.828 134.2 172.928 134.013 172.195 133.64C171.475 133.267 170.921 132.74 170.535 132.06C170.161 131.38 169.948 130.587 169.895 129.68C169.881 129.44 169.875 129.147 169.875 128.8C169.875 128.453 169.881 128.16 169.895 127.92C169.948 127 170.168 126.207 170.555 125.54C170.955 124.86 171.515 124.333 172.235 123.96C172.968 123.587 173.855 123.4 174.895 123.4C175.935 123.4 176.815 123.587 177.535 123.96C178.268 124.333 178.828 124.86 179.215 125.54C179.615 126.207 179.841 127 179.895 127.92C179.908 128.16 179.915 128.453 179.915 128.8C179.915 129.147 179.908 129.44 179.895 129.68C179.841 130.587 179.621 131.38 179.235 132.06C178.861 132.74 178.308 133.267 177.575 133.64C176.855 134.013 175.961 134.2 174.895 134.2ZM174.895 132.22C175.601 132.22 176.148 132 176.535 131.56C176.921 131.107 177.135 130.447 177.175 129.58C177.188 129.38 177.195 129.12 177.195 128.8C177.195 128.48 177.188 128.22 177.175 128.02C177.135 127.167 176.921 126.513 176.535 126.06C176.148 125.607 175.601 125.38 174.895 125.38C174.188 125.38 173.641 125.607 173.255 126.06C172.868 126.513 172.655 127.167 172.615 128.02C172.601 128.22 172.595 128.48 172.595 128.8C172.595 129.12 172.601 129.38 172.615 129.58C172.655 130.447 172.868 131.107 173.255 131.56C173.641 132 174.188 132.22 174.895 132.22ZM182.571 134C182.437 134 182.331 133.96 182.251 133.88C182.171 133.8 182.131 133.7 182.131 133.58V123.98C182.131 123.873 182.171 123.787 182.251 123.72C182.344 123.64 182.437 123.6 182.531 123.6H184.211C184.437 123.6 184.611 123.713 184.731 123.94L187.811 129.54L190.891 123.94C191.011 123.713 191.184 123.6 191.411 123.6H193.071C193.191 123.6 193.291 123.64 193.371 123.72C193.451 123.787 193.491 123.873 193.491 123.98V133.58C193.491 133.7 193.451 133.8 193.371 133.88C193.291 133.96 193.184 134 193.051 134H191.331C191.197 134 191.091 133.96 191.011 133.88C190.944 133.8 190.911 133.7 190.911 133.58V126.32L191.731 126.46L188.771 131.92C188.704 132.04 188.624 132.153 188.531 132.26C188.437 132.353 188.304 132.4 188.131 132.4H187.471C187.311 132.4 187.184 132.353 187.091 132.26C186.997 132.167 186.917 132.053 186.851 131.92L183.951 126.68L184.711 126.56V133.58C184.711 133.7 184.671 133.8 184.591 133.88C184.511 133.96 184.411 134 184.291 134H182.571Z" fill="#3F3A51"/>
<path d="M48.3628 177C48.2308 177 48.1288 176.964 48.0568 176.892C47.9848 176.808 47.9488 176.706 47.9488 176.586V164.832C47.9488 164.7 47.9848 164.598 48.0568 164.526C48.1288 164.442 48.2308 164.4 48.3628 164.4H53.2948C54.1948 164.4 54.9268 164.55 55.4908 164.85C56.0668 165.138 56.4868 165.534 56.7508 166.038C57.0268 166.542 57.1648 167.106 57.1648 167.73C57.1648 168.222 57.0808 168.648 56.9128 169.008C56.7568 169.356 56.5588 169.644 56.3188 169.872C56.0788 170.088 55.8448 170.256 55.6168 170.376C56.0848 170.604 56.4988 170.976 56.8588 171.492C57.2308 172.008 57.4168 172.632 57.4168 173.364C57.4168 174.024 57.2668 174.63 56.9668 175.182C56.6668 175.734 56.2168 176.178 55.6168 176.514C55.0288 176.838 54.2968 177 53.4208 177H48.3628ZM49.7128 175.542H53.1868C53.9668 175.542 54.5668 175.332 54.9868 174.912C55.4068 174.492 55.6168 173.976 55.6168 173.364C55.6168 172.728 55.4068 172.206 54.9868 171.798C54.5668 171.378 53.9668 171.168 53.1868 171.168H49.7128V175.542ZM49.7128 169.728H53.0248C53.7928 169.728 54.3748 169.554 54.7708 169.206C55.1668 168.846 55.3648 168.36 55.3648 167.748C55.3648 167.136 55.1668 166.668 54.7708 166.344C54.3748 166.02 53.7928 165.858 53.0248 165.858H49.7128V169.728ZM60.1343 177C60.0263 177 59.9303 176.964 59.8463 176.892C59.7743 176.808 59.7383 176.718 59.7383 176.622V168.054C59.7383 167.934 59.7743 167.838 59.8463 167.766C59.9303 167.682 60.0323 167.64 60.1523 167.64H61.0163C61.1363 167.64 61.2323 167.682 61.3043 167.766C61.3763 167.838 61.4123 167.934 61.4123 168.054V175.686L60.9443 175.2L66.3983 167.91C66.4583 167.838 66.5243 167.778 66.5963 167.73C66.6683 167.67 66.7583 167.64 66.8663 167.64H67.6943C67.7903 167.64 67.8743 167.676 67.9463 167.748C68.0303 167.82 68.0723 167.904 68.0723 168V176.586C68.0723 176.706 68.0303 176.808 67.9463 176.892C67.8743 176.964 67.7783 177 67.6582 177H66.8123C66.6803 177 66.5783 176.964 66.5063 176.892C66.4343 176.808 66.3983 176.706 66.3983 176.586V169.404L66.9023 169.386L61.4123 176.73C61.3643 176.79 61.3043 176.85 61.2323 176.91C61.1603 176.97 61.0643 177 60.9443 177H60.1343ZM70.167 178.98C70.047 178.98 69.945 178.938 69.861 178.854C69.789 178.782 69.753 178.686 69.753 178.566V175.974C69.753 175.854 69.789 175.758 69.861 175.686C69.945 175.602 70.047 175.56 70.167 175.56H70.257C70.581 175.548 70.857 175.368 71.085 175.02C71.313 174.66 71.487 174.102 71.607 173.346C71.727 172.578 71.787 171.582 71.787 170.358V168.054C71.787 167.934 71.823 167.838 71.895 167.766C71.979 167.682 72.081 167.64 72.201 167.64H77.943C78.063 167.64 78.159 167.682 78.231 167.766C78.315 167.838 78.357 167.934 78.357 168.054V175.524H79.203C79.335 175.524 79.437 175.566 79.509 175.65C79.581 175.722 79.617 175.818 79.617 175.938V178.566C79.617 178.686 79.581 178.782 79.509 178.854C79.437 178.938 79.335 178.98 79.203 178.98H78.357C78.237 178.98 78.135 178.938 78.051 178.854C77.979 178.782 77.943 178.686 77.943 178.566V177H71.427V178.566C71.427 178.686 71.385 178.782 71.301 178.854C71.229 178.938 71.133 178.98 71.013 178.98H70.167ZM72.399 175.56L76.683 175.524V169.08H73.425V170.556C73.425 171.828 73.335 172.872 73.155 173.688C72.975 174.492 72.723 175.116 72.399 175.56ZM85.226 177.18C83.99 177.18 83.006 176.802 82.274 176.046C81.542 175.278 81.14 174.234 81.068 172.914C81.056 172.758 81.05 172.56 81.05 172.32C81.05 172.068 81.056 171.864 81.068 171.708C81.116 170.856 81.314 170.112 81.662 169.476C82.01 168.828 82.484 168.33 83.084 167.982C83.696 167.634 84.41 167.46 85.226 167.46C86.138 167.46 86.9 167.652 87.512 168.036C88.136 168.42 88.61 168.966 88.934 169.674C89.258 170.382 89.42 171.21 89.42 172.158V172.464C89.42 172.596 89.378 172.698 89.294 172.77C89.222 172.842 89.126 172.878 89.006 172.878H82.778C82.778 172.89 82.778 172.914 82.778 172.95C82.778 172.986 82.778 173.016 82.778 173.04C82.802 173.532 82.91 173.994 83.102 174.426C83.294 174.846 83.57 175.188 83.93 175.452C84.29 175.716 84.722 175.848 85.226 175.848C85.658 175.848 86.018 175.782 86.306 175.65C86.594 175.518 86.828 175.374 87.008 175.218C87.188 175.05 87.308 174.924 87.368 174.84C87.476 174.684 87.56 174.594 87.62 174.57C87.68 174.534 87.776 174.516 87.908 174.516H88.772C88.892 174.516 88.988 174.552 89.06 174.624C89.144 174.684 89.18 174.774 89.168 174.894C89.156 175.074 89.06 175.296 88.88 175.56C88.7 175.812 88.442 176.064 88.106 176.316C87.77 176.568 87.362 176.778 86.882 176.946C86.402 177.102 85.85 177.18 85.226 177.18ZM82.778 171.636H87.71V171.582C87.71 171.042 87.608 170.562 87.404 170.142C87.212 169.722 86.93 169.392 86.558 169.152C86.186 168.9 85.742 168.774 85.226 168.774C84.71 168.774 84.266 168.9 83.894 169.152C83.534 169.392 83.258 169.722 83.066 170.142C82.874 170.562 82.778 171.042 82.778 171.582V171.636ZM95.4062 177.18C94.4942 177.18 93.7322 177.006 93.1202 176.658C92.5082 176.31 92.0402 175.83 91.7162 175.218C91.3922 174.594 91.2122 173.886 91.1762 173.094C91.1642 172.89 91.1582 172.632 91.1582 172.32C91.1582 171.996 91.1642 171.738 91.1762 171.546C91.2122 170.742 91.3922 170.034 91.7162 169.422C92.0522 168.81 92.5262 168.33 93.1382 167.982C93.7502 167.634 94.5062 167.46 95.4062 167.46C96.3062 167.46 97.0622 167.634 97.6742 167.982C98.2862 168.33 98.7542 168.81 99.0782 169.422C99.4142 170.034 99.6002 170.742 99.6362 171.546C99.6482 171.738 99.6542 171.996 99.6542 172.32C99.6542 172.632 99.6482 172.89 99.6362 173.094C99.6002 173.886 99.4202 174.594 99.0962 175.218C98.7722 175.83 98.3042 176.31 97.6922 176.658C97.0802 177.006 96.3182 177.18 95.4062 177.18ZM95.4062 175.794C96.1502 175.794 96.7442 175.56 97.1882 175.092C97.6322 174.612 97.8722 173.916 97.9082 173.004C97.9202 172.824 97.9262 172.596 97.9262 172.32C97.9262 172.044 97.9202 171.816 97.9082 171.636C97.8722 170.724 97.6322 170.034 97.1882 169.566C96.7442 169.086 96.1502 168.846 95.4062 168.846C94.6622 168.846 94.0622 169.086 93.6062 169.566C93.1622 170.034 92.9282 170.724 92.9042 171.636C92.8922 171.816 92.8862 172.044 92.8862 172.32C92.8862 172.596 92.8922 172.824 92.9042 173.004C92.9282 173.916 93.1622 174.612 93.6062 175.092C94.0622 175.56 94.6622 175.794 95.4062 175.794ZM105.688 177.18C104.836 177.18 104.098 177.018 103.474 176.694C102.862 176.358 102.388 175.884 102.052 175.272C101.716 174.648 101.536 173.904 101.512 173.04C101.5 172.86 101.494 172.62 101.494 172.32C101.494 172.02 101.5 171.78 101.512 171.6C101.536 170.736 101.716 169.998 102.052 169.386C102.388 168.762 102.862 168.288 103.474 167.964C104.098 167.628 104.836 167.46 105.688 167.46C106.384 167.46 106.978 167.556 107.47 167.748C107.974 167.94 108.388 168.186 108.712 168.486C109.036 168.786 109.276 169.11 109.432 169.458C109.6 169.806 109.69 170.136 109.702 170.448C109.714 170.568 109.678 170.664 109.594 170.736C109.51 170.808 109.408 170.844 109.288 170.844H108.424C108.304 170.844 108.214 170.82 108.154 170.772C108.094 170.712 108.034 170.616 107.974 170.484C107.758 169.896 107.464 169.482 107.092 169.242C106.72 169.002 106.258 168.882 105.706 168.882C104.986 168.882 104.398 169.104 103.942 169.548C103.498 169.992 103.258 170.706 103.222 171.69C103.21 172.122 103.21 172.542 103.222 172.95C103.258 173.946 103.498 174.666 103.942 175.11C104.398 175.542 104.986 175.758 105.706 175.758C106.258 175.758 106.72 175.638 107.092 175.398C107.464 175.158 107.758 174.744 107.974 174.156C108.034 174.024 108.094 173.934 108.154 173.886C108.214 173.826 108.304 173.796 108.424 173.796H109.288C109.408 173.796 109.51 173.832 109.594 173.904C109.678 173.976 109.714 174.072 109.702 174.192C109.69 174.444 109.636 174.702 109.54 174.966C109.444 175.23 109.288 175.5 109.072 175.776C108.868 176.04 108.61 176.28 108.298 176.496C107.986 176.7 107.608 176.868 107.164 177C106.732 177.12 106.24 177.18 105.688 177.18ZM112.254 177C112.134 177 112.032 176.964 111.948 176.892C111.876 176.808 111.84 176.706 111.84 176.586V168.054C111.84 167.934 111.876 167.838 111.948 167.766C112.032 167.682 112.134 167.64 112.254 167.64H115.998C117.126 167.64 117.972 167.868 118.536 168.324C119.112 168.78 119.4 169.392 119.4 170.16C119.4 170.7 119.298 171.108 119.094 171.384C118.89 171.66 118.602 171.894 118.23 172.086C118.686 172.278 119.028 172.59 119.256 173.022C119.496 173.442 119.616 173.88 119.616 174.336C119.616 175.2 119.31 175.86 118.698 176.316C118.086 176.772 117.234 177 116.142 177H112.254ZM113.496 175.686H115.998C116.574 175.686 117.036 175.578 117.384 175.362C117.744 175.134 117.924 174.792 117.924 174.336C117.924 173.856 117.762 173.508 117.438 173.292C117.114 173.064 116.634 172.95 115.998 172.95H113.496V175.686ZM113.496 171.618H115.89C116.466 171.618 116.922 171.492 117.258 171.24C117.606 170.988 117.78 170.634 117.78 170.178C117.78 169.71 117.606 169.392 117.258 169.224C116.922 169.044 116.466 168.954 115.89 168.954H113.496V171.618ZM127.762 177C127.63 177 127.528 176.964 127.456 176.892C127.384 176.808 127.348 176.706 127.348 176.586V173.652H125.278V173.562C124.15 173.562 123.31 173.286 122.758 172.734C122.218 172.17 121.948 171.456 121.948 170.592C121.948 169.584 122.242 168.84 122.83 168.36C123.43 167.88 124.33 167.64 125.53 167.64H128.626C128.746 167.64 128.842 167.682 128.914 167.766C128.998 167.838 129.04 167.934 129.04 168.054V176.586C129.04 176.706 128.998 176.808 128.914 176.892C128.842 176.964 128.746 177 128.626 177H127.762ZM122.056 177C121.948 177 121.858 176.964 121.786 176.892C121.714 176.82 121.678 176.736 121.678 176.64C121.678 176.592 121.684 176.544 121.696 176.496C121.72 176.436 121.756 176.376 121.804 176.316L123.946 173.148L125.674 173.274L123.388 176.73C123.34 176.79 123.274 176.85 123.19 176.91C123.106 176.97 123.016 177 122.92 177H122.056ZM125.332 172.302H127.366V168.99H125.476C124.804 168.99 124.306 169.11 123.982 169.35C123.67 169.578 123.514 169.992 123.514 170.592C123.514 171.084 123.658 171.492 123.946 171.816C124.246 172.14 124.708 172.302 125.332 172.302ZM134.979 177.18C134.271 177.18 133.671 177.096 133.179 176.928C132.699 176.748 132.309 176.526 132.009 176.262C131.721 175.986 131.511 175.704 131.379 175.416C131.247 175.116 131.175 174.84 131.163 174.588C131.163 174.48 131.199 174.396 131.271 174.336C131.343 174.264 131.427 174.228 131.523 174.228H132.369C132.477 174.228 132.567 174.258 132.639 174.318C132.711 174.366 132.765 174.456 132.801 174.588C132.945 175.044 133.221 175.362 133.629 175.542C134.037 175.722 134.535 175.812 135.123 175.812C135.507 175.812 135.861 175.764 136.185 175.668C136.509 175.56 136.761 175.392 136.941 175.164C137.133 174.936 137.229 174.654 137.229 174.318C137.229 173.826 137.085 173.454 136.797 173.202C136.521 172.95 136.089 172.824 135.501 172.824H134.511C134.391 172.824 134.295 172.788 134.223 172.716C134.151 172.644 134.115 172.548 134.115 172.428V171.942C134.115 171.834 134.151 171.744 134.223 171.672C134.295 171.588 134.391 171.546 134.511 171.546H135.393C135.885 171.546 136.263 171.45 136.527 171.258C136.791 171.066 136.923 170.76 136.923 170.34C136.923 170.088 136.863 169.848 136.743 169.62C136.623 169.392 136.419 169.206 136.131 169.062C135.855 168.906 135.471 168.828 134.979 168.828C134.283 168.828 133.791 168.948 133.503 169.188C133.227 169.416 133.029 169.758 132.909 170.214C132.861 170.346 132.801 170.436 132.729 170.484C132.669 170.532 132.579 170.556 132.459 170.556H131.649C131.541 170.556 131.451 170.526 131.379 170.466C131.307 170.406 131.271 170.322 131.271 170.214C131.283 169.854 131.361 169.512 131.505 169.188C131.661 168.864 131.889 168.57 132.189 168.306C132.501 168.042 132.885 167.838 133.341 167.694C133.809 167.538 134.355 167.46 134.979 167.46C135.879 167.46 136.587 167.598 137.103 167.874C137.631 168.15 138.003 168.492 138.219 168.9C138.447 169.296 138.561 169.692 138.561 170.088C138.561 170.556 138.483 170.946 138.327 171.258C138.183 171.57 137.895 171.834 137.463 172.05C138.003 172.254 138.375 172.56 138.579 172.968C138.783 173.376 138.891 173.85 138.903 174.39C138.915 175.014 138.747 175.53 138.399 175.938C138.063 176.346 137.601 176.658 137.013 176.874C136.425 177.078 135.747 177.18 134.979 177.18ZM141.346 177C141.226 177 141.124 176.964 141.04 176.892C140.968 176.808 140.932 176.706 140.932 176.586V168.054C140.932 167.934 140.968 167.838 141.04 167.766C141.124 167.682 141.226 167.64 141.346 167.64H142.21C142.33 167.64 142.426 167.682 142.498 167.766C142.582 167.838 142.624 167.934 142.624 168.054V170.7H144.64C145.864 170.7 146.758 170.988 147.322 171.564C147.886 172.14 148.168 172.92 148.168 173.904C148.168 174.96 147.856 175.74 147.232 176.244C146.608 176.748 145.672 177 144.424 177H141.346ZM142.606 175.65H144.496C145.216 175.65 145.744 175.524 146.08 175.272C146.416 175.008 146.584 174.552 146.584 173.904C146.584 173.28 146.422 172.818 146.098 172.518C145.774 172.206 145.24 172.05 144.496 172.05H142.606V175.65ZM45.254 204C45.122 204 45.02 203.964 44.948 203.892C44.876 203.808 44.84 203.706 44.84 203.586V198.96C44.66 199.164 44.39 199.338 44.03 199.482C43.67 199.614 43.28 199.71 42.86 199.77C42.452 199.83 42.056 199.86 41.672 199.86C40.22 199.86 39.146 199.53 38.45 198.87C37.766 198.198 37.424 197.226 37.424 195.954V191.814C37.424 191.694 37.46 191.598 37.532 191.526C37.616 191.442 37.718 191.4 37.838 191.4H38.756C38.888 191.4 38.99 191.442 39.062 191.526C39.146 191.598 39.188 191.694 39.188 191.814V195.846C39.188 196.65 39.398 197.25 39.818 197.646C40.238 198.03 40.958 198.222 41.978 198.222C42.254 198.222 42.554 198.198 42.878 198.15C43.202 198.102 43.514 198.012 43.814 197.88C44.114 197.736 44.36 197.544 44.552 197.304C44.744 197.064 44.84 196.758 44.84 196.386V191.814C44.84 191.694 44.876 191.598 44.948 191.526C45.02 191.442 45.122 191.4 45.254 191.4H46.172C46.304 191.4 46.406 191.442 46.478 191.526C46.562 191.598 46.604 191.694 46.604 191.814V203.586C46.604 203.706 46.562 203.808 46.478 203.892C46.406 203.964 46.304 204 46.172 204H45.254ZM52.1354 204.18C51.5354 204.18 50.9894 204.06 50.4974 203.82C50.0054 203.58 49.6094 203.256 49.3094 202.848C49.0094 202.44 48.8594 201.978 48.8594 201.462C48.8594 200.634 49.1954 199.974 49.8674 199.482C50.5394 198.99 51.4154 198.666 52.4954 198.51L55.1774 198.132V197.61C55.1774 197.034 55.0094 196.584 54.6734 196.26C54.3494 195.936 53.8154 195.774 53.0714 195.774C52.5314 195.774 52.0934 195.882 51.7574 196.098C51.4334 196.314 51.2054 196.59 51.0734 196.926C51.0014 197.106 50.8754 197.196 50.6954 197.196H49.8854C49.7534 197.196 49.6514 197.16 49.5794 197.088C49.5194 197.004 49.4894 196.908 49.4894 196.8C49.4894 196.62 49.5554 196.398 49.6874 196.134C49.8314 195.87 50.0474 195.612 50.3354 195.36C50.6234 195.108 50.9894 194.898 51.4334 194.73C51.8894 194.55 52.4414 194.46 53.0894 194.46C53.8094 194.46 54.4154 194.556 54.9074 194.748C55.3994 194.928 55.7834 195.174 56.0594 195.486C56.3474 195.798 56.5514 196.152 56.6714 196.548C56.8034 196.944 56.8694 197.346 56.8694 197.754V203.586C56.8694 203.706 56.8274 203.808 56.7434 203.892C56.6714 203.964 56.5754 204 56.4554 204H55.6274C55.4954 204 55.3934 203.964 55.3214 203.892C55.2494 203.808 55.2134 203.706 55.2134 203.586V202.812C55.0574 203.028 54.8474 203.244 54.5834 203.46C54.3194 203.664 53.9894 203.838 53.5934 203.982C53.1974 204.114 52.7114 204.18 52.1354 204.18ZM52.5134 202.83C53.0054 202.83 53.4554 202.728 53.8634 202.524C54.2714 202.308 54.5894 201.978 54.8174 201.534C55.0574 201.09 55.1774 200.532 55.1774 199.86V199.356L53.0894 199.662C52.2374 199.782 51.5954 199.986 51.1634 200.274C50.7314 200.55 50.5154 200.904 50.5154 201.336C50.5154 201.672 50.6114 201.954 50.8034 202.182C51.0074 202.398 51.2594 202.56 51.5594 202.668C51.8714 202.776 52.1894 202.83 52.5134 202.83ZM62.319 204C62.199 204 62.097 203.964 62.013 203.892C61.941 203.808 61.905 203.706 61.905 203.586V196.08H58.773C58.653 196.08 58.551 196.044 58.467 195.972C58.395 195.888 58.359 195.786 58.359 195.666V195.054C58.359 194.934 58.395 194.838 58.467 194.766C58.551 194.682 58.653 194.64 58.773 194.64H66.693C66.813 194.64 66.909 194.682 66.981 194.766C67.065 194.838 67.107 194.934 67.107 195.054V195.666C67.107 195.786 67.065 195.888 66.981 195.972C66.909 196.044 66.813 196.08 66.693 196.08H63.561V203.586C63.561 203.706 63.525 203.808 63.453 203.892C63.381 203.964 63.279 204 63.147 204H62.319ZM76.86 204.18C76.008 204.18 75.27 204.018 74.646 203.694C74.034 203.358 73.56 202.884 73.224 202.272C72.888 201.648 72.708 200.904 72.684 200.04C72.672 199.86 72.666 199.62 72.666 199.32C72.666 199.02 72.672 198.78 72.684 198.6C72.708 197.736 72.888 196.998 73.224 196.386C73.56 195.762 74.034 195.288 74.646 194.964C75.27 194.628 76.008 194.46 76.86 194.46C77.556 194.46 78.15 194.556 78.642 194.748C79.146 194.94 79.56 195.186 79.884 195.486C80.208 195.786 80.448 196.11 80.604 196.458C80.772 196.806 80.862 197.136 80.874 197.448C80.886 197.568 80.85 197.664 80.766 197.736C80.682 197.808 80.58 197.844 80.46 197.844H79.596C79.476 197.844 79.386 197.82 79.326 197.772C79.266 197.712 79.206 197.616 79.146 197.484C78.93 196.896 78.636 196.482 78.264 196.242C77.892 196.002 77.43 195.882 76.878 195.882C76.158 195.882 75.57 196.104 75.114 196.548C74.67 196.992 74.43 197.706 74.394 198.69C74.382 199.122 74.382 199.542 74.394 199.95C74.43 200.946 74.67 201.666 75.114 202.11C75.57 202.542 76.158 202.758 76.878 202.758C77.43 202.758 77.892 202.638 78.264 202.398C78.636 202.158 78.93 201.744 79.146 201.156C79.206 201.024 79.266 200.934 79.326 200.886C79.386 200.826 79.476 200.796 79.596 200.796H80.46C80.58 200.796 80.682 200.832 80.766 200.904C80.85 200.976 80.886 201.072 80.874 201.192C80.862 201.444 80.808 201.702 80.712 201.966C80.616 202.23 80.46 202.5 80.244 202.776C80.04 203.04 79.782 203.28 79.47 203.496C79.158 203.7 78.78 203.868 78.336 204C77.904 204.12 77.412 204.18 76.86 204.18ZM87.8378 204C87.7178 204 87.6158 203.964 87.5318 203.892C87.4598 203.808 87.4238 203.706 87.4238 203.586V195.054C87.4238 194.934 87.4598 194.838 87.5318 194.766C87.6158 194.682 87.7178 194.64 87.8378 194.64H88.6838C88.8038 194.64 88.8998 194.682 88.9718 194.766C89.0558 194.838 89.0978 194.934 89.0978 195.054V198.51H90.7358L93.1658 194.91C93.2258 194.826 93.2918 194.76 93.3638 194.712C93.4358 194.664 93.5318 194.64 93.6518 194.64H94.5878C94.6958 194.64 94.7858 194.664 94.8578 194.712C94.9298 194.76 94.9658 194.832 94.9658 194.928C94.9658 194.952 94.9538 194.988 94.9298 195.036C94.9178 195.072 94.8998 195.108 94.8758 195.144L92.1758 199.122L95.2358 203.478C95.2958 203.55 95.3258 203.628 95.3258 203.712C95.3258 203.808 95.2898 203.88 95.2178 203.928C95.1578 203.976 95.0738 204 94.9658 204H93.8678C93.7598 204 93.6698 203.976 93.5978 203.928C93.5258 203.88 93.4598 203.814 93.3998 203.73L90.7538 199.968H89.0978V203.586C89.0978 203.706 89.0558 203.808 88.9718 203.892C88.8998 203.964 88.8038 204 88.6838 204H87.8378ZM96.6242 204C96.5042 204 96.4022 203.958 96.3182 203.874C96.2342 203.79 96.1922 203.688 96.1922 203.568V202.902C96.1922 202.65 96.3182 202.518 96.5702 202.506C96.9422 202.494 97.2542 202.32 97.5062 201.984C97.7582 201.636 97.9502 201.09 98.0822 200.346C98.2142 199.59 98.2802 198.594 98.2802 197.358V195.054C98.2802 194.934 98.3162 194.838 98.3882 194.766C98.4722 194.682 98.5742 194.64 98.6942 194.64H104.418C104.538 194.64 104.634 194.682 104.706 194.766C104.79 194.838 104.832 194.934 104.832 195.054V203.586C104.832 203.706 104.79 203.808 104.706 203.892C104.634 203.964 104.538 204 104.418 204H103.554C103.434 204 103.338 203.964 103.266 203.892C103.194 203.808 103.158 203.706 103.158 203.586V196.08H99.9182V197.556C99.9182 198.708 99.8522 199.698 99.7202 200.526C99.5882 201.342 99.3842 202.008 99.1082 202.524C98.8442 203.028 98.5022 203.4 98.0822 203.64C97.6742 203.88 97.1882 204 96.6242 204ZM110.126 204.18C109.526 204.18 108.98 204.06 108.488 203.82C107.996 203.58 107.6 203.256 107.3 202.848C107 202.44 106.85 201.978 106.85 201.462C106.85 200.634 107.186 199.974 107.858 199.482C108.53 198.99 109.406 198.666 110.486 198.51L113.168 198.132V197.61C113.168 197.034 113 196.584 112.664 196.26C112.34 195.936 111.806 195.774 111.062 195.774C110.522 195.774 110.084 195.882 109.748 196.098C109.424 196.314 109.196 196.59 109.064 196.926C108.992 197.106 108.866 197.196 108.686 197.196H107.876C107.744 197.196 107.642 197.16 107.57 197.088C107.51 197.004 107.48 196.908 107.48 196.8C107.48 196.62 107.546 196.398 107.678 196.134C107.822 195.87 108.038 195.612 108.326 195.36C108.614 195.108 108.98 194.898 109.424 194.73C109.88 194.55 110.432 194.46 111.08 194.46C111.8 194.46 112.406 194.556 112.898 194.748C113.39 194.928 113.774 195.174 114.05 195.486C114.338 195.798 114.542 196.152 114.662 196.548C114.794 196.944 114.86 197.346 114.86 197.754V203.586C114.86 203.706 114.818 203.808 114.734 203.892C114.662 203.964 114.566 204 114.446 204H113.618C113.486 204 113.384 203.964 113.312 203.892C113.24 203.808 113.204 203.706 113.204 203.586V202.812C113.048 203.028 112.838 203.244 112.574 203.46C112.31 203.664 111.98 203.838 111.584 203.982C111.188 204.114 110.702 204.18 110.126 204.18ZM110.504 202.83C110.996 202.83 111.446 202.728 111.854 202.524C112.262 202.308 112.58 201.978 112.808 201.534C113.048 201.09 113.168 200.532 113.168 199.86V199.356L111.08 199.662C110.228 199.782 109.586 199.986 109.154 200.274C108.722 200.55 108.506 200.904 108.506 201.336C108.506 201.672 108.602 201.954 108.794 202.182C108.998 202.398 109.25 202.56 109.55 202.668C109.862 202.776 110.18 202.83 110.504 202.83ZM121.227 204.18C120.375 204.18 119.637 204.018 119.013 203.694C118.401 203.358 117.927 202.884 117.591 202.272C117.255 201.648 117.075 200.904 117.051 200.04C117.039 199.86 117.033 199.62 117.033 199.32C117.033 199.02 117.039 198.78 117.051 198.6C117.075 197.736 117.255 196.998 117.591 196.386C117.927 195.762 118.401 195.288 119.013 194.964C119.637 194.628 120.375 194.46 121.227 194.46C121.923 194.46 122.517 194.556 123.009 194.748C123.513 194.94 123.927 195.186 124.251 195.486C124.575 195.786 124.815 196.11 124.971 196.458C125.139 196.806 125.229 197.136 125.241 197.448C125.253 197.568 125.217 197.664 125.133 197.736C125.049 197.808 124.947 197.844 124.827 197.844H123.963C123.843 197.844 123.753 197.82 123.693 197.772C123.633 197.712 123.573 197.616 123.513 197.484C123.297 196.896 123.003 196.482 122.631 196.242C122.259 196.002 121.797 195.882 121.245 195.882C120.525 195.882 119.937 196.104 119.481 196.548C119.037 196.992 118.797 197.706 118.761 198.69C118.749 199.122 118.749 199.542 118.761 199.95C118.797 200.946 119.037 201.666 119.481 202.11C119.937 202.542 120.525 202.758 121.245 202.758C121.797 202.758 122.259 202.638 122.631 202.398C123.003 202.158 123.297 201.744 123.513 201.156C123.573 201.024 123.633 200.934 123.693 200.886C123.753 200.826 123.843 200.796 123.963 200.796H124.827C124.947 200.796 125.049 200.832 125.133 200.904C125.217 200.976 125.253 201.072 125.241 201.192C125.229 201.444 125.175 201.702 125.079 201.966C124.983 202.23 124.827 202.5 124.611 202.776C124.407 203.04 124.149 203.28 123.837 203.496C123.525 203.7 123.147 203.868 122.703 204C122.271 204.12 121.779 204.18 121.227 204.18ZM131.159 204.18C130.307 204.18 129.569 204.018 128.945 203.694C128.333 203.358 127.859 202.884 127.523 202.272C127.187 201.648 127.007 200.904 126.983 200.04C126.971 199.86 126.965 199.62 126.965 199.32C126.965 199.02 126.971 198.78 126.983 198.6C127.007 197.736 127.187 196.998 127.523 196.386C127.859 195.762 128.333 195.288 128.945 194.964C129.569 194.628 130.307 194.46 131.159 194.46C131.855 194.46 132.449 194.556 132.941 194.748C133.445 194.94 133.859 195.186 134.183 195.486C134.507 195.786 134.747 196.11 134.903 196.458C135.071 196.806 135.161 197.136 135.173 197.448C135.185 197.568 135.149 197.664 135.065 197.736C134.981 197.808 134.879 197.844 134.759 197.844H133.895C133.775 197.844 133.685 197.82 133.625 197.772C133.565 197.712 133.505 197.616 133.445 197.484C133.229 196.896 132.935 196.482 132.563 196.242C132.191 196.002 131.729 195.882 131.177 195.882C130.457 195.882 129.869 196.104 129.413 196.548C128.969 196.992 128.729 197.706 128.693 198.69C128.681 199.122 128.681 199.542 128.693 199.95C128.729 200.946 128.969 201.666 129.413 202.11C129.869 202.542 130.457 202.758 131.177 202.758C131.729 202.758 132.191 202.638 132.563 202.398C132.935 202.158 133.229 201.744 133.445 201.156C133.505 201.024 133.565 200.934 133.625 200.886C133.685 200.826 133.775 200.796 133.895 200.796H134.759C134.879 200.796 134.981 200.832 135.065 200.904C135.149 200.976 135.185 201.072 135.173 201.192C135.161 201.444 135.107 201.702 135.011 201.966C134.915 202.23 134.759 202.5 134.543 202.776C134.339 203.04 134.081 203.28 133.769 203.496C133.457 203.7 133.079 203.868 132.635 204C132.203 204.12 131.711 204.18 131.159 204.18ZM141.145 204.18C140.233 204.18 139.471 204.006 138.859 203.658C138.247 203.31 137.779 202.83 137.455 202.218C137.131 201.594 136.951 200.886 136.915 200.094C136.903 199.89 136.897 199.632 136.897 199.32C136.897 198.996 136.903 198.738 136.915 198.546C136.951 197.742 137.131 197.034 137.455 196.422C137.791 195.81 138.265 195.33 138.877 194.982C139.489 194.634 140.245 194.46 141.145 194.46C142.045 194.46 142.801 194.634 143.413 194.982C144.025 195.33 144.493 195.81 144.817 196.422C145.153 197.034 145.339 197.742 145.375 198.546C145.387 198.738 145.393 198.996 145.393 199.32C145.393 199.632 145.387 199.89 145.375 200.094C145.339 200.886 145.159 201.594 144.835 202.218C144.511 202.83 144.043 203.31 143.431 203.658C142.819 204.006 142.057 204.18 141.145 204.18ZM141.145 202.794C141.889 202.794 142.483 202.56 142.927 202.092C143.371 201.612 143.611 200.916 143.647 200.004C143.659 199.824 143.665 199.596 143.665 199.32C143.665 199.044 143.659 198.816 143.647 198.636C143.611 197.724 143.371 197.034 142.927 196.566C142.483 196.086 141.889 195.846 141.145 195.846C140.401 195.846 139.801 196.086 139.345 196.566C138.901 197.034 138.667 197.724 138.643 198.636C138.631 198.816 138.625 199.044 138.625 199.32C138.625 199.596 138.631 199.824 138.643 200.004C138.667 200.916 138.901 201.612 139.345 202.092C139.801 202.56 140.401 202.794 141.145 202.794ZM148.042 204C147.922 204 147.826 203.964 147.754 203.892C147.682 203.82 147.646 203.724 147.646 203.604V194.982C147.646 194.886 147.682 194.808 147.754 194.748C147.838 194.676 147.922 194.64 148.006 194.64H148.924C149.116 194.64 149.266 194.736 149.374 194.928L152.434 200.652L155.512 194.928C155.62 194.736 155.77 194.64 155.962 194.64H156.862C156.958 194.64 157.042 194.676 157.114 194.748C157.186 194.808 157.222 194.886 157.222 194.982V203.604C157.222 203.724 157.186 203.82 157.114 203.892C157.042 203.964 156.952 204 156.844 204H155.962C155.842 204 155.746 203.964 155.674 203.892C155.602 203.82 155.566 203.724 155.566 203.604V196.422L156.196 196.494L153.262 202.038C153.202 202.158 153.13 202.266 153.046 202.362C152.962 202.458 152.836 202.506 152.668 202.506H152.2C152.044 202.506 151.924 202.458 151.84 202.362C151.756 202.266 151.678 202.158 151.606 202.038L148.762 196.764L149.32 196.71V203.604C149.32 203.724 149.284 203.82 149.212 203.892C149.14 203.964 149.044 204 148.924 204H148.042Z" fill="#3F3A51"/>
</svg>
